<svg xmlns="http://www.w3.org/2000/svg" width="320" height="240" viewBox="0 0 320 240">
  <defs>
    <filter id="paper"><feTurbulence type="fractalNoise" baseFrequency="0.018" numOctaves="4" seed="8"/><feColorMatrix type="saturate" values="0"/><feComponentTransfer><feFuncA type="table" tableValues="0 0.08"/></feComponentTransfer><feBlend mode="multiply" in2="SourceGraphic"/></filter>
    <filter id="rough"><feTurbulence type="fractalNoise" baseFrequency="0.032" numOctaves="2" seed="12" result="noise"/><feDisplacementMap in="SourceGraphic" in2="noise" scale="2.1"/></filter>
    <style>
      .wash-green{fill:#dbece3;opacity:.78}.wash-terra{fill:#efd6c8;opacity:.72}.wash-yellow{fill:#f6e8af;opacity:.72}.wash-blue{fill:#dbe8ea;opacity:.72}
      .ink{fill:none;stroke:#3c332d;stroke-width:5.2;stroke-linecap:round;stroke-linejoin:round;filter:url(#rough)}.thin{fill:none;stroke:#3c332d;stroke-width:3.2;stroke-linecap:round;stroke-linejoin:round;filter:url(#rough)}
      .green{fill:none;stroke:#5a9080;stroke-width:5;stroke-linecap:round;stroke-linejoin:round;filter:url(#rough)}.terra{fill:none;stroke:#c17a5a;stroke-width:5;stroke-linecap:round;stroke-linejoin:round;filter:url(#rough)}.yellow{fill:none;stroke:#d7b756;stroke-width:5;stroke-linecap:round;stroke-linejoin:round;filter:url(#rough)}
      .fill-green{fill:#9ccbb7;opacity:.68;filter:url(#rough)}.fill-terra{fill:#d89576;opacity:.68;filter:url(#rough)}.fill-yellow{fill:#ead070;opacity:.75;filter:url(#rough)}.fill-blue{fill:#8eb9bd;opacity:.54;filter:url(#rough)}
    </style>
  </defs><rect width="320" height="240" rx="34" fill="#fffaf1" opacity="0"/><ellipse class="wash-yellow" cx="160" cy="128" rx="100" ry="78"/><path class="fill-green" d="M83 90c34-16 57-13 77 8 22-19 48-23 79-6v117c-30-13-57-9-80 10-24-18-51-22-77-9z"/><path class="ink" d="M82 91c34-16 58-12 78 9 21-20 49-24 79-7v116c-30-13-57-9-80 10-24-18-51-22-77-9z"/><path class="thin" d="M160 99v120M102 121c14-4 27-3 40 2M102 146c14-3 27-1 41 3M180 124c13-7 28-9 43-4M181 151c15-6 28-7 42-2"/></svg>
